<svg width="50" height="50" viewBox="0 0 50 50" fill="none" xmlns="http://www.w3.org/2000/svg">
<g clip-path="url(#clip0_128_1172)">
<path d="M48.1646 1.81574C47.5135 1.16614 46.7263 0.669055 45.8599 0.360319C44.9935 0.0515821 44.0694 -0.0611224 43.1542 0.0303264C37.3355 0.592826 17.7667 3.01574 10.2084 10.5657C6.59542 14.1886 4.45298 19.0216 4.1948 24.1316C3.93663 29.2416 5.58105 34.266 8.81048 38.2345L31.8521 15.1928C32.245 14.8133 32.7713 14.6033 33.3175 14.6081C33.8638 14.6128 34.3863 14.8319 34.7726 15.2182C35.1588 15.6045 35.3779 16.127 35.3827 16.6732C35.3874 17.2195 35.1774 17.7457 34.798 18.1387L11.7646 41.1803C15.7318 44.4117 20.7558 46.0582 25.866 45.8015C30.9762 45.5449 35.8099 43.4034 39.4334 39.7907C47.0917 32.1303 49.4334 12.622 49.9729 6.82616C50.0611 5.90923 49.9447 4.98414 49.632 4.11768C49.3193 3.25122 48.8181 2.46499 48.1646 1.81574V1.81574ZM10.2084 39.7907C10.7056 40.2866 11.2216 40.7525 11.7563 41.1887L3.54799 49.397C3.15402 49.7755 2.62713 49.9842 2.08082 49.9779C1.53451 49.9717 1.0125 49.7511 0.627272 49.3637C0.242041 48.9763 0.0244133 48.453 0.0212747 47.9067C0.018136 47.3604 0.229738 46.8346 0.610493 46.4428L8.81882 38.2345C9.25493 38.7678 9.71812 39.2866 10.2084 39.7907Z" fill="#5BDF6F"/>
</g>
<defs>
<clipPath id="clip0_128_1172">
<rect width="50" height="50" fill="white"/>
</clipPath>
</defs>
</svg>
