<svg width="488" height="440" viewBox="0 0 488 440" fill="none" xmlns="http://www.w3.org/2000/svg">
<path fill-rule="evenodd" clip-rule="evenodd" d="M219.008 0.590301C264.586 -4.30746 307.87 22.0395 343.262 51.1759C377.107 79.0391 396.668 118.432 412.028 159.495C428.077 202.397 449.348 248.954 433.291 291.853C417.397 334.317 373.683 361.243 330.899 376.244C294.697 388.938 256.923 361.139 219.008 366.987C168.972 374.706 126.865 431.25 78.8747 415.12C31.8984 399.332 0.966633 342.939 0.0117538 293.384C-0.907159 245.696 52.2973 217.522 74.2513 175.179C90.9915 142.892 89.5358 103.943 112.749 75.9469C141.16 41.6801 174.753 5.34596 219.008 0.590301Z" fill="#5BDF6F"/>
<path fill-rule="evenodd" clip-rule="evenodd" d="M240.008 10.5903C285.586 5.69254 328.87 32.0395 364.262 61.1759C398.107 89.0391 417.668 128.432 433.028 169.495C449.077 212.397 470.348 258.954 454.291 301.853C438.397 344.317 394.683 371.243 351.899 386.244C315.697 398.938 277.923 371.139 240.008 376.987C189.972 384.706 147.865 441.25 99.8747 425.12C52.8984 409.332 21.9666 352.939 21.0118 303.384C20.0928 255.696 73.2973 227.522 95.2513 185.179C111.991 152.892 110.536 113.943 133.749 85.9469C162.16 51.6801 195.753 15.346 240.008 10.5903Z" stroke="#5BDF6F"/>
<path fill-rule="evenodd" clip-rule="evenodd" d="M267.008 21.5903C312.586 16.6925 355.87 43.0395 391.262 72.1759C425.107 100.039 444.668 139.432 460.028 180.495C476.077 223.397 497.348 269.954 481.291 312.853C465.397 355.317 421.683 382.243 378.899 397.244C342.697 409.938 304.923 382.139 267.008 387.987C216.972 395.706 174.865 452.25 126.875 436.12C79.8984 420.332 48.9666 363.939 48.0118 314.384C47.0928 266.696 100.297 238.522 122.251 196.179C138.991 163.892 137.536 124.943 160.749 96.9469C189.16 62.6801 222.753 26.346 267.008 21.5903Z" stroke="#5BDF6F"/>
</svg>
